HIERARCHY
ROOT Hips
{
     OFFSET 1.88212 96.90440 -13.34250
     CHANNELS 6 Xposition Yposition Zposition Zrotation Xrotation Yrotation
     JOINT Spine
     {
          OFFSET 0.00000 11.89050 0.00000
          CHANNELS 3 Zrotation Xrotation Yrotation
          JOINT Spine1
          {
               OFFSET -0.00000 25.65740 0.12766
               CHANNELS 3 Zrotation Xrotation Yrotation
               JOINT HEad
               {
                    OFFSET 0.00000 8.73416 0.01134
                    CHANNELS 3 Zrotation Xrotation Yrotation
                    End Site
                    {
                         OFFSET -0.29000 12.77420 2.51395
                    }
               }
               JOINT LeftShoulder1
               {
                    OFFSET 8.99000 -0.36225 -0.22000
                    CHANNELS 3 Zrotation Xrotation Yrotation
                    JOINT LeftArm
                    {
                         OFFSET 10.28270 -0.00338 0.32212
                         CHANNELS 3 Zrotation Xrotation Yrotation
                         JOINT LeftForeArm
                         {
                              OFFSET 32.76690 0.09914 -1.42434
                              CHANNELS 3 Zrotation Xrotation Yrotation
                              JOINT LeftHand
                              {
                                   OFFSET 27.56430 0.08536 1.02216
                                   CHANNELS 3 Zrotation Xrotation Yrotation
                                   End Site
                                   {
                                        OFFSET 16.74430 -0.60000 1.50291
                                   }
                              }
                         }
                    }
               }
               JOINT RightShoulder
               {
                    OFFSET -8.99000 -0.36225 -0.22000
                    CHANNELS 3 Zrotation Xrotation Yrotation
                    JOINT RightArm
                    {
                         OFFSET -10.28270 -0.00338 0.32212
                         CHANNELS 3 Zrotation Xrotation Yrotation
                         JOINT RightForeArm
                         {
                              OFFSET -32.89710 0.09914 -1.42434
                              CHANNELS 3 Zrotation Xrotation Yrotation
                              JOINT RightHand
                              {
                                   OFFSET -27.49210 0.08536 1.02216
                                   CHANNELS 3 Zrotation Xrotation Yrotation
                                   End Site
                                   {
                                        OFFSET -16.63120 -0.60000 1.50291
                                   }
                              }
                         }
                    }
               }
          }
     }
     JOINT LeftUpLeg
     {
          OFFSET 8.94580 -8.66707 0.10165
          CHANNELS 3 Zrotation Xrotation Yrotation
          JOINT LeftLeg
          {
               OFFSET 0.00000 -44.42270 1.37270
               CHANNELS 3 Zrotation Xrotation Yrotation
               JOINT LeftFoot
               {
                    OFFSET -0.25355 -42.09240 -1.46059
                    CHANNELS 3 Zrotation Xrotation Yrotation
                    JOINT LeftToes
                    {
                         OFFSET -0.04000 -4.41509 8.49910
                         CHANNELS 3 Zrotation Xrotation Yrotation
                         End Site
                         {
                              OFFSET 0.08000 -0.04745 9.77979
                         }
                    }
               }
          }
     }
     JOINT RightUpLeg
     {
          OFFSET -8.94580 -8.66707 0.10165
          CHANNELS 3 Zrotation Xrotation Yrotation
          JOINT RightLeg
          {
               OFFSET 0.00000 -44.42270 1.37270
               CHANNELS 3 Zrotation Xrotation Yrotation
               JOINT RightFoot
               {
                    OFFSET 0.25355 -42.09240 -1.46059
                    CHANNELS 3 Zrotation Xrotation Yrotation
                    JOINT RightToes
                    {
                         OFFSET 0.04000 -4.41509 8.49910
                         CHANNELS 3 Zrotation Xrotation Yrotation
                         End Site
                         {
                              OFFSET -0.08000 -0.13745 9.77979
                         }
                    }
               }
          }
     }
}
MOTION
Frames: 12
Frame Time: 0.01667
59.33019 92.08170 373.52100 -4.09644 5.60522 -169.25821 3.93473 17.85456 10.04480 0.01157 -0.00410 -0.01208 -34.39075 16.46000 29.23766 11.92954 -3.95883 0.80635 18.28369 -77.95789 38.80663 -41.16625 46.90182 -103.31056 4.22899 9.86782 8.14561 32.73571 -0.91881 7.97653 36.20360 -12.63132 58.47445 23.42790 34.99892 108.03854 -5.81782 16.81129 -2.72371 23.04553 -23.36399 10.91973 -4.68361 24.54989 7.62121 19.63157 0.04009 -0.03381 -40.18615 -5.89417 -8.48236 -23.59086 0.71574 -5.95269 -14.65129 35.99761 38.24686 12.45023 -0.09068 0.03140 -16.79017 -51.17016 -27.95383 
61.70975 91.53747 374.70215 -3.97308 4.75034 -168.62727 3.56327 17.35723 10.57675 0.00971 -0.00204 -0.01322 -34.16592 14.89585 29.37368 11.67104 -3.33364 -0.07146 21.62029 -78.50246 43.05731 -41.41763 47.23641 -103.43447 4.36456 10.17305 1.05040 32.01186 -0.68510 6.95816 38.38499 -12.23251 60.52021 23.54497 35.40277 107.01793 -5.83575 16.44559 -2.87061 23.85151 -24.74952 10.80539 -3.66244 24.12521 3.47702 21.22281 0.05703 -0.02782 -41.48894 -6.00299 -5.54513 -23.59664 4.75147 -1.42346 -7.62749 29.49551 27.85532 12.41918 -0.09632 -0.02269 -9.89864 -42.26720 -27.42341 
63.99295 91.04659 375.76331 -3.80062 4.10143 -168.07732 3.43291 16.96428 10.91532 0.00758 -0.00157 -0.01417 -33.95792 13.53263 29.68245 11.24073 -2.61651 -0.87742 25.21882 -79.16304 47.64053 -41.88803 47.75625 -103.26793 4.80363 9.09225 5.18252 31.39258 -0.29517 5.95629 40.23351 -11.80642 62.37496 23.51023 35.74923 106.10459 -5.96674 16.05222 -2.89522 24.12061 -25.89747 10.51471 -1.60453 23.67013 -2.57865 21.76680 0.03582 -0.01006 -29.26008 3.46983 -7.83136 -23.72325 8.32296 2.84189 -1.47056 24.61493 17.74061 8.64456 -0.17721 0.07124 -9.63644 -44.19486 -22.26903 
66.13481 90.58929 376.67719 -3.59926 3.66381 -167.57848 3.51338 16.67137 11.04497 0.00619 -0.00058 -0.01479 -33.79660 12.43244 30.19253 10.77422 -1.83521 -1.63253 29.16322 -79.88361 52.69000 -42.52872 48.45755 -103.03123 4.81716 9.22588 0.61425 30.71796 0.18372 4.97262 41.96581 -11.32050 64.01717 23.39867 36.02241 105.26250 -6.14613 15.56356 -2.90530 23.97136 -26.73026 10.05732 0.07355 22.69015 -7.61067 22.48559 0.03341 -0.02872 -39.23911 -1.13107 0.14546 -23.97647 11.37082 6.83192 4.30049 20.46738 8.66413 7.84096 -0.14234 0.01120 -8.41965 -42.00687 -18.52293 
68.08914 90.18056 377.43988 -3.38139 3.43434 -167.10315 3.79809 16.44711 10.96313 0.00531 -0.00116 -0.01390 -33.69500 11.66869 30.90543 10.37522 -1.16189 -2.21564 32.20940 -80.63779 56.85646 -43.34517 49.18594 -102.48103 5.08692 8.81594 2.76777 30.18370 0.61995 4.14871 43.41007 -10.75295 65.24459 23.23578 36.21851 104.49612 -6.38916 15.10441 -2.69609 23.55000 -27.18635 9.48413 1.56142 21.48715 -11.72202 23.10465 0.02546 -0.02531 -39.57096 1.54960 3.14182 -24.34279 13.90450 10.51669 9.54283 16.68019 1.23038 4.46145 -0.19264 0.03799 -7.42693 -42.99456 -14.05470 
69.88408 89.92185 378.11481 -3.16634 3.38743 -166.64461 4.21750 16.27337 10.69948 0.00196 -0.00054 -0.01287 -33.56863 11.20107 31.76454 9.83325 -0.44263 -2.63032 34.40942 -81.54123 59.92043 -44.19008 49.87333 -101.83240 4.92143 8.96378 -0.05237 29.59161 1.15742 3.44248 44.79129 -10.17365 66.21207 23.01933 36.35103 103.78746 -6.39264 14.53629 -2.73305 23.01926 -27.25488 8.86640 2.82742 20.23823 -14.88221 23.61155 0.01802 -0.01978 -42.82196 0.72618 8.17927 -24.76864 15.93806 13.86390 13.92035 13.12115 -4.04943 3.57785 -0.14531 0.02274 -8.51593 -42.93677 -11.56772 
71.49639 89.80282 378.70047 -2.94289 3.48001 -166.23856 4.72116 16.11661 10.32808 -0.00087 -0.00005 -0.01119 -33.41541 11.04033 32.72729 9.18120 0.25311 -2.86127 34.98940 -82.56875 61.08207 -44.98302 50.41956 -101.02386 5.09224 8.92380 1.23813 28.99113 1.73801 2.92900 46.00923 -9.63853 66.86054 22.76263 36.43019 103.10841 -6.29138 14.14781 -2.68656 22.59964 -27.09546 8.36982 3.30887 20.26035 -15.42709 24.81610 0.00148 -0.01569 -43.46056 0.56385 9.58974 -24.44800 16.90356 16.20173 16.25286 9.10922 -7.33627 1.17335 -0.12976 0.07133 -7.86835 -41.58419 -9.42118 
72.92699 89.86160 379.21204 -2.70710 3.67222 -165.91389 5.26075 15.95483 9.90423 -0.00283 0.00081 -0.01004 -32.85820 12.67073 34.00862 8.47121 0.93325 -2.99087 34.25328 -83.60475 60.69917 -45.60112 50.79223 -100.29386 4.96522 9.36855 -0.46521 28.32517 2.32808 2.52278 47.08681 -9.10849 67.34663 22.47768 36.44275 102.43676 -5.98128 13.82480 -2.65442 22.39554 -26.86221 8.10604 3.23861 20.95867 -13.85583 26.32109 -0.01627 0.00365 -45.21675 5.14053 25.06636 -23.45159 17.09666 17.50670 16.96401 7.50229 -8.30905 2.80616 -0.13657 0.01598 -10.40079 -39.98816 -9.29370 
74.16769 90.08968 379.62384 -2.46451 3.93771 -165.67212 5.79924 15.77701 9.45826 -0.00400 0.00158 -0.00855 -32.37016 15.96223 35.40867 7.72833 1.57145 -3.00335 32.06818 -84.61028 58.67227 -46.07090 51.00183 -99.59230 5.12057 9.57073 0.35854 27.53220 2.91552 2.26600 48.04936 -8.62090 67.68088 22.17280 36.39710 101.79222 -5.68083 13.47491 -2.53195 22.42459 -26.65069 8.10493 2.66811 22.10021 -10.66773 27.95931 -0.03434 0.02372 -44.38293 4.13419 14.83545 -21.88407 16.57592 17.82590 16.77287 9.69888 -8.19803 1.49777 -0.02262 -0.02581 -9.29504 -40.72000 -9.94977 
75.22607 90.45396 379.93115 -2.20503 4.24968 -165.51572 6.32637 15.57111 9.01458 -0.00432 0.00183 -0.00735 -32.07352 19.06848 36.78076 7.00132 2.12588 -2.91300 28.43396 -85.48248 55.08006 -46.37964 51.09984 -99.07034 5.03401 10.06645 -0.73021 26.63899 3.42433 2.04429 48.88717 -8.08471 67.94730 21.89119 36.31931 101.18206 -5.34218 13.20328 -2.34256 22.70863 -26.49621 8.38027 1.53575 23.53577 -6.27521 29.71077 -0.04816 0.04235 -44.47831 4.69416 13.47888 -19.95285 15.56793 17.22433 15.61049 10.55641 -7.21769 7.79327 -0.20957 -0.01896 -15.08354 -39.05197 -10.00690 
76.11617 90.90811 380.13660 -1.91589 4.54942 -165.42265 6.83400 15.29597 8.58362 -0.00442 0.00241 -0.00565 -31.96119 21.95888 38.11160 6.28386 2.64068 -2.68597 23.60792 -86.29302 50.18132 -46.62498 51.13430 -98.61256 5.13379 10.26505 -0.17495 25.64038 3.94366 2.00100 49.60102 -7.72516 68.14999 21.66747 36.21664 100.59438 -5.03862 12.93605 -2.21785 23.11837 -26.31026 8.84186 0.92116 23.83002 -2.90876 30.39973 -0.00408 0.01176 -44.33741 5.05189 7.31185 -18.40251 14.78016 16.66055 14.53805 11.98006 -6.38975 5.47737 -0.00976 -0.01736 -11.73277 -38.54985 -9.05213 
76.85578 91.40590 380.26120 -1.60244 4.81775 -165.36642 7.29982 14.95531 8.16612 -0.00514 0.00343 -0.00404 -32.00584 24.58276 39.38845 5.54024 3.13989 -2.35883 -26.30419 -90.00000 0.00000 -46.81024 51.13372 -98.23759 5.05797 10.71931 -0.77109 24.57072 4.47563 2.07395 50.18724 -7.52077 68.36935 21.51052 36.09472 100.02426 -4.75310 12.70652 -2.02251 23.49582 -25.97401 9.37608 0.65944 23.40113 -0.48206 30.30639 0.01719 -0.00418 -44.52522 6.19703 4.53223 -17.15222 14.12846 16.08286 13.56653 13.64487 -5.58884 8.05774 -0.03689 0.00741 0.15012 -27.68558 8.01117 
